IKResults
version=1
nRows=58
nColumns=8
inDegrees=yes

Units are S.I. units (second, meters, Newtons, ...)
If the header above contains a line with 'inDegrees', this indicates whether rotational values are in degrees (yes) or radians (no).

endheader
time	Shank_rx	Shank_ry	Shank_rz	Shank_tx	Shank_ty	Shank_tz	Rfoot_rz
      9.76000000	     -4.40413613	      3.22077436	      4.02391083	     -0.28456053	      0.28469738	     -0.63000110	     -5.36106836
      9.77000000	     -4.36566300	      3.21681898	      4.05043912	     -0.28463577	      0.28471452	     -0.62985897	     -5.38113918
      9.78000000	     -4.36893936	      3.23609131	      4.03343119	     -0.28454784	      0.28469121	     -0.62985874	     -5.37131087
      9.79000000	     -4.37422764	      3.21823422	      4.03600882	     -0.28459255	      0.28468168	     -0.62989261	     -5.36548719
      9.80000000	     -4.37424011	      3.21828733	      4.03616363	     -0.28458300	      0.28470485	     -0.62989000	     -5.36542186
      9.81000000	     -4.37269342	      3.22112226	      4.04365423	     -0.28461525	      0.28468941	     -0.62987865	     -5.36326335
      9.82000000	     -4.37224223	      3.22277440	      4.05391929	     -0.28466026	      0.28464546	     -0.62987976	     -5.36086193
      9.83000000	     -4.35152991	      3.21563778	      4.12176340	     -0.28488876	      0.28469058	     -0.62978819	     -5.43153854
      9.84000000	     -4.35176189	      3.21568781	      4.12188465	     -0.28487656	      0.28469213	     -0.62976451	     -5.43156291
      9.85000000	     -4.33262268	      3.21133944	      4.21071432	     -0.28513800	      0.28466727	     -0.62968917	     -5.52018027
      9.86000000	     -4.33207237	      3.21567534	      4.21996097	     -0.28521476	      0.28464118	     -0.62964726	     -5.51669524
      9.87000000	     -4.31904840	      3.22965760	      4.22441117	     -0.28523018	      0.28470720	     -0.62958735	     -5.52698823
      9.88000000	     -4.29228021	      3.21928603	      4.29985847	     -0.28543377	      0.28466509	     -0.62947546	     -5.59494287
      9.89000000	     -4.27407882	      3.21744730	      4.36183877	     -0.28564763	      0.28464877	     -0.62939266	     -5.65798558
      9.90000000	     -4.27426460	      3.21862048	      4.36931540	     -0.28570544	      0.28467445	     -0.62936575	     -5.65614837
      9.91000000	     -4.24250292	      3.21496216	      4.43813988	     -0.28589654	      0.28467324	     -0.62922210	     -5.73122133
      9.92000000	     -4.28952570	      3.23791347	      4.48072469	     -0.28604131	      0.28464026	     -0.62936088	     -5.76285479
      9.93000000	     -4.24807233	      3.23239079	      4.50985805	     -0.28616059	      0.28464064	     -0.62920689	     -5.78511939
      9.94000000	     -4.24345994	      3.22815648	      4.60677971	     -0.28645314	      0.28466450	     -0.62916608	     -5.89506625
      9.95000000	     -4.24297768	      3.23347687	      4.61281234	     -0.28645646	      0.28464125	     -0.62916595	     -5.89286565
      9.96000000	     -4.27275639	      3.24045913	      4.66541538	     -0.28665167	      0.28460455	     -0.62924187	     -5.93580202
      9.97000000	     -4.14426996	      3.28152842	      4.66740841	     -0.28662495	      0.28467569	     -0.62868674	     -5.94405422
      9.98000000	     -4.14132484	      3.28680814	      4.67751438	     -0.28665849	      0.28463186	     -0.62866730	     -5.93926105
      9.99000000	     -4.17534398	      3.29665010	      4.73332862	     -0.28682460	      0.28461107	     -0.62879072	     -5.99508218
     10.00000000	     -4.15500907	      3.28196107	      4.79433063	     -0.28703169	      0.28464127	     -0.62872742	     -6.05906856
     10.01000000	     -4.16328387	      3.27403301	      4.80271053	     -0.28705916	      0.28460095	     -0.62876669	     -6.05200000
     10.02000000	     -4.20339144	      3.29139674	      4.81718950	     -0.28710707	      0.28457838	     -0.62891323	     -6.06313295
     10.03000000	     -4.18799919	      3.27874200	      4.84880294	     -0.28721352	      0.28457868	     -0.62888175	     -6.09563599
     10.04000000	     -4.20253228	      3.26815095	      4.84746984	     -0.28719375	      0.28457542	     -0.62896000	     -6.09810656
     10.05000000	     -4.20615369	      3.27453353	      4.86229758	     -0.28727220	      0.28454540	     -0.62895956	     -6.08841019
     10.06000000	     -4.25401513	      3.28951329	      4.88089150	     -0.28730979	      0.28451692	     -0.62915236	     -6.11059189
     10.07000000	     -4.25384423	      3.28947313	      4.88072004	     -0.28732954	      0.28453800	     -0.62917270	     -6.11062318
     10.08000000	     -4.30000917	      3.29394123	      4.94833320	     -0.28754012	      0.28448704	     -0.62931196	     -6.17560211
     10.09000000	     -4.35725986	      3.28493355	      4.83475737	     -0.28711790	      0.28446887	     -0.62959421	     -6.07778422
     10.10000000	     -4.30759665	      3.28724540	      4.97159241	     -0.28761512	      0.28450222	     -0.62937876	     -6.19662369
     10.11000000	     -4.30774182	      3.28727116	      4.97155637	     -0.28761959	      0.28449134	     -0.62936284	     -6.19662075
     10.12000000	     -4.30907006	      3.28778220	      4.98232324	     -0.28764059	      0.28445176	     -0.62938288	     -6.19229544
     10.13000000	     -4.33566891	      3.30621304	      5.03069836	     -0.28781110	      0.28445441	     -0.62945346	     -6.24294131
     10.14000000	     -4.33727570	      3.29766553	      5.03853367	     -0.28785174	      0.28445963	     -0.62947566	     -6.24085082
     10.15000000	     -4.30177103	      3.29533472	      5.08852051	     -0.28799373	      0.28444746	     -0.62932000	     -6.29301225
     10.16000000	     -4.32829032	      3.29607234	      5.15162975	     -0.28819760	      0.28443992	     -0.62942386	     -6.35610269
     10.17000000	     -4.32831725	      3.29607908	      5.15150845	     -0.28821197	      0.28444082	     -0.62942311	     -6.35611857
     10.18000000	     -4.42676748	      3.26285913	      5.27513141	     -0.28859207	      0.28437683	     -0.62982674	     -6.48144881
     10.19000000	     -4.33994295	      3.30027025	      5.27531385	     -0.28859150	      0.28439695	     -0.62943780	     -6.46951438
     10.20000000	     -4.45013681	      3.26180421	      5.30655650	     -0.28873295	      0.28433304	     -0.62992691	     -6.48883263
     10.21000000	     -4.43908286	      3.26760830	      5.37278501	     -0.28891295	      0.28434256	     -0.62986629	     -6.55787526
     10.22000000	     -4.43515817	      3.27146418	      5.38095567	     -0.28894988	      0.28432826	     -0.62983993	     -6.55903207
     10.23000000	     -4.44659244	      3.27007959	      5.47399443	     -0.28924404	      0.28430343	     -0.62985017	     -6.65224109
     10.24000000	     -4.44635828	      3.27004254	      5.47387460	     -0.28925987	      0.28430857	     -0.62987408	     -6.65224380
     10.25000000	     -4.44095066	      3.27420786	      5.48449096	     -0.28931311	      0.28430299	     -0.62981814	     -6.64891265
     10.26000000	     -4.42559376	      3.26659061	      5.58435989	     -0.28961290	      0.28430905	     -0.62975430	     -6.75558345
     10.27000000	     -4.43382773	      3.25217623	      5.59590774	     -0.28967035	      0.28428706	     -0.62981446	     -6.75203184
     10.28000000	     -4.42633186	      3.25866593	      5.68909572	     -0.28993735	      0.28426355	     -0.62973585	     -6.85152299
     10.29000000	     -4.42148140	      3.27044618	      5.69762187	     -0.28998349	      0.28427582	     -0.62970342	     -6.85239029
     10.30000000	     -4.40763993	      3.25633448	      5.75416998	     -0.29016277	      0.28425692	     -0.62965040	     -6.91137121
     10.31000000	     -4.44066532	      3.25977239	      5.78997399	     -0.29026212	      0.28424352	     -0.62975938	     -6.94864437
     10.32000000	     -4.40950524	      3.26353393	      5.86373773	     -0.29049892	      0.28423328	     -0.62961489	     -7.01385980
     10.33000000	     -4.41547996	      3.26372276	      5.95371563	     -0.29077691	      0.28422096	     -0.62963502	     -7.11233420
